<?xml version="1.0" encoding="utf-8"?>
<!DOCTYPE svg PUBLIC "-//W3C//DTD SVG 1.1//EN" "http://www.w3.org/Graphics/SVG/1.1/DTD/svg11.dtd">
<svg version="1.1" id="Layer_1" xmlns="http://www.w3.org/2000/svg" x="0px" y="0px"
   width="118px" height="57px" viewBox="0 0 118 57" enable-background="new 0 0 118 57"><rect fill="#FFFFFF" width="111" height="50"/><g><rect x="14" y="14" fill="#33CCFF" width="7" height="22"/></g><g><rect x="24" y="30" fill="#33CCFF" width="7" height="6"/></g><g><rect x="24" y="21" fill="#33CCFF" width="7" height="2"/></g><rect x="24" y="14" width="7" height="7"/><rect x="31" y="14" fill="#FF4400" width="9" height="7"/><g><g><rect x="47" y="21" fill="#33CCFF" width="7" height="15"/></g><rect x="47" y="14" width="7" height="7"/><rect x="42" y="14" fill="#FF4400" width="5" height="7"/><rect x="54" y="14" fill="#FF4400" width="5" height="7"/></g><g><g><rect x="66" y="21" fill="#33CCFF" width="7" height="15"/></g><rect x="66" y="14" width="7" height="7"/><rect x="61" y="14" fill="#FF4400" width="5" height="7"/><rect x="73" y="14" fill="#FF4400" width="5" height="7"/></g><g><g><rect x="85" y="21" fill="#33CCFF" width="7" height="15"/></g><rect x="85" y="14" width="7" height="7"/><rect x="80" y="14" fill="#FF4400" width="5" height="7"/><rect x="92" y="14" fill="#FF4400" width="5" height="7"/></g><rect x="24" y="23" width="7" height="7"/><rect x="31" y="23" fill="#FF4400" width="6" height="7"/></svg>